<svg id="Layer_1" data-name="Layer 1" xmlns="http://www.w3.org/2000/svg" width="769.13" height="154.84" viewBox="0 0 769.13 154.84"><defs><style>.cls-1{fill:#fff;}.cls-2{fill:#e8e8ea;}.cls-3{fill:#f79232;}.cls-4,.cls-8{fill:#8b6438;}.cls-4{opacity:0.1;}.cls-5{fill:#f4ac3d;}.cls-6{fill:#f4ad35;}.cls-7{opacity:0.36;}.cls-9{fill:#6d6e71;}</style></defs><title>PHL_orange</title><path class="cls-1" d="M70.86,141.12a70.26,70.26,0,1,1,70.26-70.26A70.34,70.34,0,0,1,70.86,141.12Z"/><path class="cls-2" d="M70.86,1.2A69.66,69.66,0,1,1,1.2,70.86,69.66,69.66,0,0,1,70.86,1.2m0-1.2a70.86,70.86,0,1,0,70.86,70.86A70.94,70.94,0,0,0,70.86,0h0Z"/><path class="cls-3" d="M75.13,106.22c-0.38,4.94-2.34,11.12.2,15.75,0.89,1.63,4.55.11,3.52-1.75-2.17-4-.12-10,0.2-14.25,0.16-2.1-3.78-1.62-3.93.24h0Z"/><path class="cls-3" d="M82.5,103.62c0.87,5.64,2.31,12.4,6.14,16.91,0.88,1,4.59-.34,3.59-1.52-3.69-4.35-5-11-5.86-16.42-0.21-1.34-4.09-.43-3.86,1h0Z"/><path class="cls-3" d="M57.09,60.1c3.1-2.32,10.48-7.38,12.5-10.5,3.11-4.82,7-13.64,10.26-18.39A24.9,24.9,0,0,1,90.91,22a14.37,14.37,0,0,1,12.2.07,13,13,0,0,1,6.33,6.08c0.71,1.72,1.83,4.79,3,5.13,4.4,1.27,11.64,3.45,11.64,3.45-5.42,1.5-12.36,1.12-15.16,6.48-1.59,3-.73,6.93-0.46,10.13,0.75,8.8,1,16.14-1.8,24.65-2.61,7.85-9.34,19.67-19.52,24.34"/><path class="cls-3" d="M87.37,102.74L87,101.83c9.81-4.5,16.5-15.76,19.26-24,2.85-8.56,2.51-15.83,1.77-24.45,0-.56-0.12-1.14-0.18-1.73-0.32-2.82-.69-6,0.69-8.67,2.21-4.25,6.82-5.07,11.27-5.86,0.8-.14,1.61-0.29,2.4-0.45-2.43-.73-6.84-2-9.86-2.92-1.17-.34-2.08-2.37-3.07-4.78L109,28.29a12.4,12.4,0,0,0-6.09-5.83,13.93,13.93,0,0,0-11.79-.05,24.16,24.16,0,0,0-10.84,9.08,100.39,100.39,0,0,0-5.56,9.88C73,44.59,71.47,47.62,70,49.87c-1.73,2.68-7.16,6.64-10.76,9.26L57.4,60.5l-0.6-.8,1.87-1.37c3.54-2.58,8.88-6.47,10.51-9,1.42-2.21,3-5.22,4.64-8.41a101.27,101.27,0,0,1,5.63-10,25.46,25.46,0,0,1,11.28-9.44,14.88,14.88,0,0,1,12.6.08,13.42,13.42,0,0,1,6.58,6.35l0.26,0.64c0.56,1.39,1.61,4,2.42,4.2,4.35,1.26,11.58,3.43,11.65,3.45l1.66,0.5-1.67.46c-1.37.38-2.85,0.64-4.29,0.9-4.41.78-8.57,1.52-10.56,5.33-1.24,2.37-.89,5.41-0.59,8.09,0.07,0.6.14,1.19,0.19,1.76,0.72,8.43,1.08,16.12-1.82,24.85C104.34,86.57,97.47,98.1,87.37,102.74Z"/><path id="Wing_Shadow" data-name="Wing Shadow" class="cls-4" d="M53,120a48.21,48.21,0,0,1-16.56-4C24.55,110.92,18.19,97.29,18,96.76l-1-3,2.15-.67a43.53,43.53,0,0,0,13.4-6.38c3.68-2.67,4.11-2.73,8.52-7.61a79.79,79.79,0,0,0,6.78-9.22c3-4.56,5.71-9.24,9.26-12.46a45.08,45.08,0,0,1,7.91-6,28.61,28.61,0,0,1,7.33-2.57c4-.95,8.72.51,12.72,1.39A20.49,20.49,0,0,1,100.7,67.62c1.69,13.25-3.09,28.82-13.54,39a51.36,51.36,0,0,1-16.77,10.45A42.53,42.53,0,0,1,53,120Z"/><path class="cls-1" d="M35.25,87.91c3.82-2.79,3.82-2.79,8.33-7.84,5.29-5.93,10.15-16.18,16.06-21.6a31.65,31.65,0,0,1,6.54-4.76,25.72,25.72,0,0,1,6.74-2.35,22.25,22.25,0,0,1,10.49-.09A16.57,16.57,0,0,1,96.78,65.95c1.66,14.14-4,29.83-15,39a50.64,50.64,0,0,1-17.48,9.38c-9.58,2.95-19.64,1.79-28.8-2.08-11.19-4.72-15.29-16.87-15.29-16.87A59.42,59.42,0,0,0,35.25,87.91Z"/><path class="cls-5" d="M53.09,118a47.22,47.22,0,0,1-18.41-3.89c-11.88-5-16.23-17.54-16.4-18.07l-0.65-1.93,1.95-.61A57.84,57.84,0,0,0,34.07,86.3c3.65-2.67,3.65-2.67,8-7.55a80.13,80.13,0,0,0,6.63-9.24c3-4.56,6.06-9.28,9.57-12.5a33.46,33.46,0,0,1,7-5.05,27.68,27.68,0,0,1,7.21-2.53,24,24,0,0,1,11.39-.1A18.67,18.67,0,0,1,98.76,65.72c1.77,15.06-4.55,31.46-15.73,40.81a52.6,52.6,0,0,1-18.18,9.76A40,40,0,0,1,53.09,118ZM22.84,96.62c1.58,3.39,5.71,10.6,13.4,13.84A43.25,43.25,0,0,0,53.09,114a36,36,0,0,0,10.58-1.57,48.59,48.59,0,0,0,16.79-9C90.65,94.94,96.41,80,94.79,66.18A14.59,14.59,0,0,0,83,53.24a20.08,20.08,0,0,0-9.59.08,24,24,0,0,0-6.27,2.17A29.57,29.57,0,0,0,61,60c-3.14,2.88-6.08,7.38-8.92,11.74a82.8,82.8,0,0,1-7,9.72c-4.56,5.1-4.65,5.2-8.64,8.12A59.13,59.13,0,0,1,22.84,96.62Z"/><path class="cls-6" d="M34.68,114.15c-12.17-5.23-16.3-17.89-16.4-18.07h0l-0.65-1.94,1.95-.61s0.47-.15,1.33-0.46h0c0.86-.31,2.08-0.78,3.5-1.4h0a51.28,51.28,0,0,0,9.66-5.37h0c3.84-2.83,3.43-2.45,8-7.55h0c5-5.56,9.86-15.86,16.2-21.74h0a33.6,33.6,0,0,1,7-5.05h0a27.69,27.69,0,0,1,7.21-2.53h0a25.1,25.1,0,0,1,5.89-.73h0a25.17,25.17,0,0,1,5.49.63h0A18.59,18.59,0,0,1,98.76,65.71h0a44.15,44.15,0,0,1,.3,5.16h0c0,13.31-5.77,27-16,35.65h0a52.69,52.69,0,0,1-18.18,9.76h0A40,40,0,0,1,53.09,118h0a47.51,47.51,0,0,1-18.41-3.89h0ZM25.29,101a25.33,25.33,0,0,0,11,9.47h0A43.5,43.5,0,0,0,53.09,114h0a35.85,35.85,0,0,0,10.58-1.57h0a48.66,48.66,0,0,0,16.79-9h0c9.23-7.7,14.62-20.42,14.6-32.58h0a40.31,40.31,0,0,0-.27-4.7h0C93.95,59.38,89.58,54.74,83,53.23h0a21.16,21.16,0,0,0-4.63-.53h0a21,21,0,0,0-5,.62h0a23.68,23.68,0,0,0-6.27,2.17h0A29.71,29.71,0,0,0,61,60h0c-5.48,5-10.36,15.16-15.92,21.45h0c-4.42,5-4.84,5.36-8.64,8.12h0a59.34,59.34,0,0,1-13.6,7.09h0A32.38,32.38,0,0,0,25.29,101h0Z"/><path class="cls-6" d="M53.09,118.54h0a47.83,47.83,0,0,1-18.6-3.93C23.66,110,19,99.49,17.87,96.39l0-.12L17,93.81,19.5,93c0.16,0,.58-0.19,1.24-0.43s2-.75,3.48-1.39a50.94,50.94,0,0,0,9.56-5.31l0.47-.35c3.12-2.29,3.12-2.29,6.81-6.4l0.66-.73a75,75,0,0,0,6.44-9c3-4.62,6.12-9.4,9.79-12.8A34,34,0,0,1,65,51.51a28.15,28.15,0,0,1,7.33-2.57,24.45,24.45,0,0,1,11.61-.1A19,19,0,0,1,99.26,65.66a45,45,0,0,1,.3,5.22c0,13.85-6.23,27.65-16.21,36A53.2,53.2,0,0,1,65,116.77,40.52,40.52,0,0,1,53.09,118.54ZM18.75,95.91L18.81,96c1.12,3,5.61,13.15,16.07,17.64a46.8,46.8,0,0,0,18.21,3.85,39.53,39.53,0,0,0,11.61-1.72,52.2,52.2,0,0,0,18-9.67C92.47,98,98.55,84.44,98.56,70.88a43.92,43.92,0,0,0-.29-5.1,18,18,0,0,0-14.54-16,23.45,23.45,0,0,0-11.16.1,27.31,27.31,0,0,0-7.09,2.48,33.06,33.06,0,0,0-6.85,5C55,60.69,52,65.42,49,70a75.64,75.64,0,0,1-6.54,9.09l-0.66.73C38,84,38,84,34.84,86.35l-0.48.35a52,52,0,0,1-9.76,5.42c-1.48.64-2.74,1.12-3.53,1.41S19.89,94,19.73,94h0l-1.46.46Zm34.34,18.62a43.75,43.75,0,0,1-17-3.62,26,26,0,0,1-11.17-9.66,33,33,0,0,1-2.49-4.43l-0.23-.49,0.51-.19a59.07,59.07,0,0,0,13.48-7c3.78-2.74,4.18-3.11,8.56-8a88.77,88.77,0,0,0,7.09-9.87c2.84-4.34,5.78-8.83,8.86-11.62a30,30,0,0,1,6.22-4.53,24.36,24.36,0,0,1,6.39-2.22,20.59,20.59,0,0,1,9.82-.09C90,54.32,94.43,59.2,95.29,66.12a40.94,40.94,0,0,1,.27,4.76c0,12.72-5.65,25.35-14.78,33a49,49,0,0,1-17,9.1A36.43,36.43,0,0,1,53.09,114.54ZM23.52,96.89a32.24,32.24,0,0,0,2.19,3.81A25,25,0,0,0,36.44,110a42.79,42.79,0,0,0,16.66,3.54A35.46,35.46,0,0,0,63.53,112a48,48,0,0,0,16.61-8.91C89,95.64,94.58,83.31,94.56,70.88a40.13,40.13,0,0,0-.27-4.64A14.1,14.1,0,0,0,82.86,53.72a19.58,19.58,0,0,0-9.36.09,23.11,23.11,0,0,0-6.15,2.13,29,29,0,0,0-6,4.39c-3,2.71-5.9,7.14-8.7,11.43a89.33,89.33,0,0,1-7.18,10c-4.46,5-4.86,5.39-8.72,8.19A59.57,59.57,0,0,1,23.52,96.89Z"/><g class="cls-7"><circle class="cls-8" cx="99.56" cy="31.32" r="2.55"/></g><circle class="cls-1" cx="99.08" cy="30.82" r="2.55"/><path class="cls-6" d="M28.59,92.35c6,12.91,15.77,22.41,17,22.75,6.14,1.71,15.46-1.48,19.17-1.76A56.41,56.41,0,0,1,34.09,88.85Z"/><path class="cls-6" d="M75.23,109.42s10.55-5.2,11.94-7.14c-4.37-1.13-27.29-4-39.82-26.19a67.76,67.76,0,0,1-5.75,6.25S54,101.6,75.23,109.42Z"/><path class="cls-3" d="M185.77,106.8a233.74,233.74,0,0,1-2.38-34.89c0-8.69,0-18.18,4.2-26a23.26,23.26,0,0,1,21.09-12.25c8.83,0.25,16.2,6.93,18.84,15,3,9.08-1.39,18.16-9.08,23.16-11,7.13-25.18,1.37-36.56-1.22-3.3-.75-4.7,4.31-1.4,5.06,15.13,3.45,31.09,8.82,44.56-2.22,15.68-12.84,8.17-36.9-9.06-43.63-8.47-3.3-18.71-1-25.56,4.71-7.75,6.49-10.78,15-11.73,24.75-1.57,16.12-.38,32.87,2,48.87,0.5,3.34,5.56,1.91,5.06-1.4h0Z"/><path class="cls-3" d="M243.42,60.24c-2.23,15.15-3.91,32.1,0,47.1,0.85,3.27,5.92,1.88,5.06-1.4-3.65-14-2.08-30.15,0-44.31,0.49-3.31-4.57-4.74-5.06-1.4h0Z"/><path class="cls-3" d="M442.73,105.32c-4-9.28-3.64-22.42-.7-31.93,3.45-11.14,16.35-16.74,26.6-11.06C482.12,69.81,478.84,93.7,476,106c-0.76,3.29,4.3,4.69,5.06,1.4,3.82-16.53,6-44.19-13.85-51.36-12-4.35-24.84,2.72-29.54,14.11-4.56,11-4.26,26.93.5,37.87,1.35,3.1,5.87.42,4.53-2.65h0Z"/><path class="cls-3" d="M372.58,82.21a27.5,27.5,0,0,0,27.07,27.07c15,0.42,26.66-12.66,27.07-27.07,0.42-15-12.66-26.67-27.07-27.07-15-.42-26.66,12.66-27.07,27.07-0.09,3.39,5.16,3.38,5.25,0a22.14,22.14,0,0,1,21.82-21.82c12.14-.34,21.49,10.18,21.82,21.82,0.34,12.14-10.18,21.49-21.82,21.82-12.14.34-21.49-10.18-21.82-21.82C377.74,78.83,372.49,78.82,372.58,82.21Z"/><path class="cls-3" d="M549.5,82.21a27.5,27.5,0,0,0,27.07,27.07c15,0.42,26.66-12.66,27.07-27.07,0.42-15-12.66-26.67-27.07-27.07-15-.42-26.66,12.66-27.07,27.07-0.09,3.39,5.16,3.38,5.25,0a22.14,22.14,0,0,1,21.82-21.82c12.14-.34,21.49,10.18,21.82,21.82,0.34,12.14-10.18,21.49-21.82,21.82-12.14.34-21.49-10.18-21.82-21.82C554.66,78.83,549.41,78.82,549.5,82.21Z"/><path class="cls-3" d="M496.33,29.77c-3,25.56-2.49,51.21-1.65,76.88,0.11,3.38,5.35,3.39,5.25,0C499.46,90.84,496,59.45,519.48,60c20.75,0.51,15.13,33.79,13.71,46.61-0.37,3.36,4.88,3.33,5.25,0,1.8-16.17,6.39-49.58-17.56-51.74-28.71-2.58-26.76,32.47-26.2,51.74h5.25c-0.84-25.67-1.36-51.31,1.65-76.88,0.4-3.36-4.86-3.32-5.25,0h0Z"/><path class="cls-3" d="M615.7,29.77c-3,25.56-2.49,51.21-1.65,76.88,0.11,3.38,5.36,3.39,5.25,0-0.84-25.67-1.36-51.31,1.65-76.88,0.4-3.36-4.86-3.32-5.25,0h0Z"/><path class="cls-3" d="M299.79,153.6c11.17-18.34,13.33-41.89,12-62.88-0.56-9.08-1.5-19.17-7.43-26.52A25.3,25.3,0,0,0,281,55.25c-19.9,2.8-29.6,25.25-19,42,10.43,16.47,37,15.06,48.92,1,2.18-2.56-1.52-6.29-3.71-3.71-11,12.88-33.68,12.84-42.16-2.46-9.43-17,7.83-35.18,25.27-31.15,17.15,4,16.62,27.48,16.53,41.08-0.12,16.57-2.88,34.54-11.62,48.9-1.77,2.9,2.78,5.54,4.53,2.65h0Z"/><path class="cls-3" d="M629.81,83.33c6.41,5,14.79,5.71,22.57,4,6.68-1.43,15.87-6.34,18-13.37,2.2-7.37-2-13.69-8.6-16.95-6.29-3.13-13.8-2.22-19.93.72-15,7.22-17,31.21-6.84,43.06,9.39,11,27.28,10.76,38.12,2.16,2.65-2.1-1.09-5.79-3.71-3.71-7.46,5.91-18.73,6.26-26.78,1.42-10.73-6.45-10.46-23.55-4.4-32.83a17.46,17.46,0,0,1,13.54-7.51c5.72-.44,13.26,2.67,14.05,9.08,0.83,6.65-8.39,10.8-13.42,12.48-5.81,1.95-13.91,1.56-18.86-2.31-2.63-2.06-6.38,1.63-3.71,3.71h0Z"/><path class="cls-3" d="M322.43,83.33c6.4,5,14.79,5.71,22.57,4C351.68,85.94,360.88,81,363,74c2.2-7.37-2-13.69-8.6-16.95-6.29-3.13-13.8-2.22-19.93.72-15,7.22-17,31.21-6.84,43.06,9.39,11,27.28,10.76,38.12,2.16,2.65-2.1-1.09-5.79-3.71-3.71-7.46,5.91-18.73,6.26-26.78,1.42-10.73-6.45-10.46-23.55-4.4-32.83a17.46,17.46,0,0,1,13.54-7.51c5.72-.44,13.26,2.67,14.05,9.08,0.83,6.65-8.39,10.8-13.42,12.48-5.81,1.95-13.91,1.56-18.86-2.31-2.63-2.06-6.38,1.63-3.71,3.71h0Z"/><path class="cls-3" d="M705.87,60.09H694.24c-3.55,0-3.56-1.12-3-3.77,0.69-3.26,1.68-6.46,2.37-9.72l0.78-3.66c1-4.63,3.06-12.37,2.39-17,0.56,0,1.06-.1,1.61-0.1,4,0,2.92,3.26,2.38,5.8-1.2,5.65-2.77,11.3-4,16.9-0.26,1.22-1.76,7.69-1.39,8.55,0.45,1.07,2,1.07,3.32,1.07,1.77,0,3.71-.2,5.52-0.36a16.37,16.37,0,0,0,6.48-2l-0.06.31C710.1,58.92,709.55,60.09,705.87,60.09Z"/><path class="cls-3" d="M705.87,60.59H694.24c-1.8,0-2.8-.28-3.34-0.94s-0.46-2-.15-3.43c0.35-1.64.78-3.28,1.19-4.87s0.84-3.23,1.18-4.85l0.78-3.67c0.16-.74.34-1.56,0.54-2.43,1-4.47,2.39-10.59,1.84-14.39l-0.08-.52,0.74-.06c0.49,0,.95-0.08,1.44-0.08a3.44,3.44,0,0,1,2.87,1.05c0.95,1.18.52,3,.15,4.69l-0.15.66c-0.6,2.84-1.31,5.72-2,8.51s-1.37,5.61-2,8.39l-0.14.64c-1.25,5.68-1.38,7.27-1.27,7.62,0.32,0.76,1.73.76,2.86,0.76,1.45,0,3-.14,4.53-0.27l0.95-.08a15.81,15.81,0,0,0,6.31-1.94l0.91-.43-0.27,1.29C710.55,59.19,709.82,60.59,705.87,60.59Zm-8.53-34.2c0.39,4-.94,9.88-1.92,14.23-0.2.87-.38,1.68-0.54,2.42l-0.78,3.66c-0.35,1.64-.78,3.29-1.19,4.89s-0.83,3.21-1.18,4.83c-0.29,1.36-.38,2.18-0.05,2.59s1.15,0.57,2.56.57h11.63c3.11,0,3.7-.85,4.18-2.9a15.14,15.14,0,0,1-5.74,1.6l-0.94.08c-1.54.14-3.13,0.28-4.62,0.28s-3.21,0-3.79-1.38c-0.28-.65.07-3,1.22-8.21l0.14-.63c0.6-2.8,1.3-5.66,2-8.42s1.38-5.65,2-8.48l0.15-.68c0.32-1.42.69-3,0-3.85a2.58,2.58,0,0,0-2.09-.68C698,26.34,697.7,26.36,697.35,26.39Z"/><path class="cls-3" d="M718.64,37.74a10,10,0,0,1,1.7-.2c2.26,0,2.47,1.32,2.12,3-0.67,3.16-1.66,6.36-2.33,9.52a39.58,39.58,0,0,0-1.26,10,9.92,9.92,0,0,1-1.7.2c-2,0-2.72-.71-2.37-2.39,0.76-3.56,1.93-7.07,2.69-10.64C718.14,44.1,719.05,40.7,718.64,37.74Zm3.89-8.24c2.69,0,1.18,2.49,1.94,4.12a5.35,5.35,0,0,1-1.78.31c-1.83,0-3.29-.92-2.95-2.55A2.63,2.63,0,0,1,722.54,29.5Z"/><path class="cls-3" d="M717.17,60.69a3.08,3.08,0,0,1-2.54-.84,2.46,2.46,0,0,1-.31-2.15c0.38-1.79.87-3.6,1.35-5.34s1-3.53,1.34-5.29l0.26-1.22c0.6-2.73,1.22-5.55.87-8l-0.07-.48,0.48-.08a10.3,10.3,0,0,1,1.78-.21,2.76,2.76,0,0,1,2.29.84A3.26,3.26,0,0,1,723,40.6c-0.34,1.59-.76,3.22-1.17,4.79s-0.82,3.16-1.16,4.73A39.17,39.17,0,0,0,719.37,60l0,0.44-0.43.08A10.27,10.27,0,0,1,717.17,60.69Zm2-22.53a26.43,26.43,0,0,1-.95,7.9L718,47.26c-0.38,1.8-.87,3.6-1.35,5.35s-1,3.52-1.34,5.29a1.58,1.58,0,0,0,.11,1.32,2.32,2.32,0,0,0,1.77.47,7.36,7.36,0,0,0,1.18-.12,41.93,41.93,0,0,1,1.29-9.66c0.34-1.59.76-3.2,1.17-4.77S721.64,42,722,40.39a2.3,2.3,0,0,0-.12-1.88,1.9,1.9,0,0,0-1.51-.47A7.28,7.28,0,0,0,719.19,38.16Zm3.5-3.73a3.8,3.8,0,0,1-3-1.16,2.3,2.3,0,0,1-.43-2A3.1,3.1,0,0,1,722.54,29a2.24,2.24,0,0,1,1.68.56,2.88,2.88,0,0,1,.52,2.18,4,4,0,0,0,.19,1.67l0.23,0.5-0.52.18A5.81,5.81,0,0,1,722.7,34.43ZM722.54,30a2.14,2.14,0,0,0-2.3,1.49,1.31,1.31,0,0,0,.23,1.15,3.56,3.56,0,0,0,3.37.65,6.32,6.32,0,0,1-.1-1.57,2.28,2.28,0,0,0-.23-1.46A1.37,1.37,0,0,0,722.54,30Z"/><path class="cls-3" d="M735.41,60.19a5.84,5.84,0,0,1-1.32.15,1.48,1.48,0,0,1-1.74-1,37.29,37.29,0,0,1-1.28-6.06c-0.93-5.14-1.74-10.53-3.92-15.27a8.34,8.34,0,0,1,2.68-.51c2.75,0,2.49,2.7,2.72,4.48,0.61,4.88,1.93,9.62,2.8,14.45,3.1-4.78,9.65-13.74,10.74-18.83a8.62,8.62,0,0,1,1.58-.2c1.35,0,2.13.61,1.89,1.78C749,42,737.07,55.55,735.41,60.19Z"/><path class="cls-3" d="M734.1,60.84a2,2,0,0,1-2.2-1.32,21.47,21.47,0,0,1-1-4.37c-0.1-.61-0.19-1.22-0.31-1.79l-0.27-1.49c-0.82-4.64-1.67-9.44-3.61-13.66l-0.23-.51,0.53-.18a8.94,8.94,0,0,1,2.84-.53c2.8,0,3,2.46,3.14,4.08,0,0.29,0,.57.08,0.83,0.37,3,1,5.93,1.64,8.8,0.31,1.44.64,2.92,0.93,4.41l1.34-2c3.29-4.88,7.79-11.57,8.65-15.63l0.07-.32L746,37.1a9,9,0,0,1,1.67-.21,2.54,2.54,0,0,1,2.06.78,1.84,1.84,0,0,1,.31,1.61c-0.31,1.44-3.08,5.13-6.3,9.41s-7,9.32-7.86,11.67l-0.09.26-0.27.06A6.38,6.38,0,0,1,734.1,60.84Zm-6.26-22.53c1.83,4.2,2.66,8.87,3.46,13.39l0.26,1.48c0.11,0.57.21,1.19,0.31,1.82a20.74,20.74,0,0,0,.95,4.15c0.23,0.54.34,0.7,1.28,0.7a5.24,5.24,0,0,0,.95-0.09c1-2.56,4.53-7.19,7.9-11.67,2.88-3.83,5.86-7.79,6.12-9a0.89,0.89,0,0,0-.11-0.77c-0.33-.41-1.31-0.48-2.44-0.27-1.06,4.26-5.48,10.83-8.72,15.65-0.75,1.11-1.44,2.14-2,3l-0.69,1.06-0.22-1.25c-0.34-1.87-.75-3.76-1.15-5.59C733.09,48,732.44,45,732.06,42c0-.27-0.06-0.57-0.09-0.88-0.16-2-.39-3.16-2.14-3.16A6.89,6.89,0,0,0,727.84,38.31Z"/><path class="cls-3" d="M757.8,48.74a13.36,13.36,0,0,1-4.06-.46c-0.19.61-.37,1.17-0.5,1.78-0.79,3.72,0,8.14,5.25,8.14,2.75,0,4.71-1.17,6.9-2.8a1.33,1.33,0,0,1,.49,1.17c-0.55,2.59-6.55,4-9.06,4-7,0-8.56-4.07-7.45-9.31,1.19-5.6,6.28-14,14.48-14,3.73,0,6.35,2.09,5.67,5.29C768.55,47.16,762.4,48.74,757.8,48.74Zm4.75-9.36c-4.59,0-7.16,4.33-8.37,7.43a17.27,17.27,0,0,0,2.82.25c3,0,8.32-1.12,9-4.27C766.39,40.9,764.81,39.37,762.55,39.37Z"/><path class="cls-3" d="M756.81,61.09c-3.21,0-5.53-.85-6.89-2.52s-1.73-4.19-1-7.39c1.18-5.56,6.29-14.39,15-14.39a6.75,6.75,0,0,1,5.34,2.11,4.37,4.37,0,0,1,.82,3.79c-1,4.84-7.22,6.55-12.21,6.55a14.34,14.34,0,0,1-3.73-.35c-0.13.43-.25,0.84-0.35,1.28-0.53,2.49-.22,4.67.84,6a4.77,4.77,0,0,0,3.92,1.56c2.49,0,4.31-1,6.6-2.7l0.35-.26,0.31,0.31a1.77,1.77,0,0,1,.62,1.63C765.71,59.74,759.18,61.09,756.81,61.09Zm7-23.31c-8.09,0-12.88,8.34-14,13.6-0.62,2.9-.33,5.1.85,6.56s3.21,2.15,6.11,2.15c2.74,0,8.12-1.5,8.57-3.62a0.54,0.54,0,0,0-.08-0.38,11.19,11.19,0,0,1-6.81,2.61,5.71,5.71,0,0,1-4.7-1.93c-1.25-1.55-1.63-4-1-6.81,0.13-.59.29-1.13,0.47-1.7l0.19-.59,0.47,0.13a12.85,12.85,0,0,0,3.93.44c3.71,0,10.26-1.21,11.23-5.76a3.4,3.4,0,0,0-.62-2.95A5.78,5.78,0,0,0,763.85,37.79ZM757,47.56a17.71,17.71,0,0,1-2.9-.26l-0.61-.1,0.22-.58c1.13-2.89,3.78-7.75,8.84-7.75a4.2,4.2,0,0,1,3.32,1.42,3,3,0,0,1,.61,2.6C765.75,46.31,760.41,47.56,757,47.56Zm-2.12-1.15a15.2,15.2,0,0,0,2.12.15c3.19,0,7.93-1.2,8.5-3.88a2,2,0,0,0-.41-1.76,3.21,3.21,0,0,0-2.54-1C758.4,39.87,756,43.73,754.88,46.4Z"/><path class="cls-9" d="M676.79,36.65h-1.3L673,32.56h-2v4.1h-1.09V27.77h3.88c2.35,0,3.15.88,3.15,2.35,0,1.74-1.22,2.39-2.79,2.44Zm-4.18-5c1.26,0,3.11.21,3.11-1.6,0-1.39-1.13-1.55-2.23-1.55H671V31.7h1.66Z"/><path class="cls-9" d="M673,41.14a8.93,8.93,0,1,1,8.93-8.93A8.94,8.94,0,0,1,673,41.14ZM673,24a8.18,8.18,0,1,0,8.18,8.18A8.19,8.19,0,0,0,673,24Z"/></svg>